:SAMPLES-PER-SECOND 30
:FRAME-RANGE 1-1390
:FULLY-SPECIFIED
:DEGREES
435
root  -35.0461 36.1841 -56.6587 -3.67813 69.1655 5.58111
RightUpLeg  -10.6454 -6.62562 11.1821
RightLeg  43.996 -11.9156 -12.3514
RightFoot  -25.217 -1.50635 -10.9387
RightToes  -2.9104e-010 0 -3.6325e-017
Spine  17.9729 -3.53843 -5.60559
Spine1  0.298918 -8.89408 10.3005
HEad  -18.6217 -37.8413 14.0286
LeftShoulder1  3.51579 -5.29379 -33.9545
LeftArm  77.0822 -34.1983 -81.1755
LeftForeArm  0.890076 -15.922 -13.0196
LeftHand  -0.0238226 4.31327 0.039712
RightShoulder  12.2915 19.2508 47.2043
RightArm  39.5176 8.6237 25.1752
RightForeArm  22.9252 25.3847 4.22377
RightHand  0.789141 4.66731 8.78677
LeftUpLeg  -90.5853 26.9363 -70.6542
LeftLeg  124.821 -4.61232 5.661
LeftFoot  5.88046 0.28744 -2.1346
LeftToes  5.45371e-012 -1.3743e-010 1.09575e-010
436
root  -34.5333 36.9199 -56.5402 -2.44544 65.74 6.81131
RightUpLeg  -7.24126 -3.66438 10.2639
RightLeg  39.0545 -11.6912 -10.2696
RightFoot  -22.9253 -1.26126 -10.8689
RightToes  -2.9104e-010 0 -3.6325e-017
Spine  17.1706 -3.23017 -6.61341
Spine1  -0.144993 -8.73151 10.4099
HEad  -17.9527 -36.612 13.3959
LeftShoulder1  3.50498 -5.27872 -33.9005
LeftArm  81.6853 -32.7213 -80.2411
LeftForeArm  -4.0747 -17.3372 -11.8973
LeftHand  -0.0185598 4.01855 -0.303712
RightShoulder  12.3409 19.3914 47.0979
RightArm  40.8625 7.91854 25.6145
RightForeArm  23.6851 25.405 4.18775
RightHand  0.772822 4.78871 8.48939
LeftUpLeg  -91.4584 27.0936 -71.8139
LeftLeg  126.054 -2.31986 2.49508
LeftFoot  4.4812 0.727685 -5.43086
LeftToes  5.45371e-012 -1.3743e-010 1.09575e-010
437
root  -34.0906 38.0103 -56.4999 0.117581 62.4527 9.32473
RightUpLeg  -3.60163 -1.52101 8.01135
RightLeg  32.1977 -10.1476 -7.06647
RightFoot  -18.4738 -0.732256 -9.72141
RightToes  -2.9104e-010 0 -3.6325e-017
Spine  16.9419 -2.97021 -7.38995
Spine1  -1.14993 -8.35159 9.87829
HEad  -17.855 -35.7683 12.9666
LeftShoulder1  3.45791 -5.23391 -33.5692
LeftArm  87.0745 -30.8676 -79.289
LeftForeArm  -10.169 -18.8985 -10.5339
LeftHand  -0.00372239 3.37038 -0.880638
RightShoulder  11.8575 18.4437 47.2253
RightArm  41.0089 7.04845 26.3471
RightForeArm  23.5334 25.372 4.18873
RightHand  0.821229 4.84991 8.97934
LeftUpLeg  -91.734 26.7927 -72.4374
LeftLeg  127.137 -3.02289 3.25329
LeftFoot  5.51724 1.06094 -7.37969
LeftToes  5.45371e-012 -1.3743e-010 1.09575e-010
438
root  -33.7147 39.1967 -56.565 2.28185 58.8939 11.2731
RightUpLeg  -1.58243 -0.70311 5.29583
RightLeg  26.9868 -6.80627 -3.98706
RightFoot  -11.7364 -0.106167 -7.82937
RightToes  -2.9104e-010 0 -3.6325e-017
Spine  16.8569 -2.65588 -7.42032
Spine1  -1.90413 -7.74794 8.91452
HEad  -17.9784 -34.6824 12.3226
LeftShoulder1  3.43159 -5.332 -32.8364
LeftArm  88.3165 -30.1985 -79.7544
LeftForeArm  -11.5657 -19.2276 -10.2348
LeftHand  0.00896736 3.24208 -1.50125
RightShoulder  11.3829 17.7379 46.8427
RightArm  41.4726 5.97437 26.9379
RightForeArm  21.745 25.6534 4.34476
RightHand  0.859242 4.94982 9.30952
LeftUpLeg  -91.868 26.0294 -72.4915
LeftLeg  127.631 -5.21507 5.81849
LeftFoot  7.82611 1.17707 -7.24816
LeftToes  5.45371e-012 -1.3743e-010 1.09575e-010
439
root  -33.4032 40.2018 -56.7339 3.0073 55.3789 11.7506
RightUpLeg  -1.36732 -0.695453 3.21357
RightLeg  24.6489 -3.59533 -2.03033
RightFoot  -4.34651 0.146753 -2.881
RightToes  -2.9104e-010 0 -3.6325e-017
Spine  17.4618 -2.47217 -6.75546
Spine1  -2.56922 -7.26637 8.18061
HEad  -17.992 -33.0892 11.3973
LeftShoulder1  3.42799 -5.43948 -32.3307
LeftArm  90.0636 -30.1216 -80.5978
LeftForeArm  -12.5309 -19.6142 -9.83329
LeftHand  0.0112759 3.33517 -1.59867
RightShoulder  11.5645 18.1213 46.7378
RightArm  41.9425 5.2152 26.6842
RightForeArm  20.1318 25.3165 4.35809
RightHand  0.893511 5.04251 9.59901
LeftUpLeg  -91.3681 25.1053 -71.3544
LeftLeg  127.265 -7.31273 8.41093
LeftFoot  8.7851 1.33287 -7.80523
LeftToes  5.45371e-012 -1.3743e-010 1.09575e-010
440
root  -33.108 40.8463 -56.9128 3.67988 52.1831 12.0368
RightUpLeg  -3.34295 -0.467417 1.81672
RightLeg  25.965 -3.53335 -2.1042
RightFoot  1.3033 -0.241513 2.25909
RightToes  -2.9104e-010 0 -3.6325e-017
Spine  18.1621 -2.31154 -6.78128
Spine1  -3.07155 -7.06942 8.31891
HEad  -17.7357 -31.2787 10.3419
LeftShoulder1  3.41951 -5.48011 -32.0628
LeftArm  92.9024 -30.0373 -81.4239
LeftForeArm  -14.305 -20.2271 -9.19955
LeftHand  0.0102935 3.42357 -1.48192
RightShoulder  11.5246 18.2485 46.2887
RightArm  42.9182 5.55888 26.4042
RightForeArm  18.807 24.9309 4.3456
RightHand  0.942407 5.40259 9.77823
LeftUpLeg  -91.1379 24.0403 -71.2664
LeftLeg  126.464 -8.60358 10.2258
LeftFoot  8.994 1.46186 -8.4472
LeftToes  5.45371e-012 -1.3743e-010 1.09575e-010
441
root  -32.8503 41.1108 -57.0052 3.96547 49.0564 11.7915
RightUpLeg  -5.78858 -0.12085 1.88909
RightLeg  27.6164 -7.64636 -4.5541
RightFoot  3.18778 -0.0789202 0.789774
RightToes  -2.9104e-010 0 -3.6325e-017
Spine  18.6907 -2.10281 -6.8476
Spine1  -3.41423 -6.91488 8.27933
HEad  -18.0157 -29.5333 9.92368
LeftShoulder1  3.4169 -5.50315 -31.9362
LeftArm  94.3067 -30.1113 -81.9084
LeftForeArm  -15.251 -20.522 -8.89771
LeftHand  0.010442 3.24977 -1.42712
RightShoulder  11.4124 18.2674 45.781
RightArm  42.6913 5.74459 26.5173
RightForeArm  18.9398 24.8852 4.32867
RightHand  0.957874 5.59922 9.75356
LeftUpLeg  -91.3639 23.3978 -71.8989
LeftLeg  125.816 -8.46055 10.2898
LeftFoot  9.29923 1.54331 -8.77562
LeftToes  5.45371e-012 -1.3743e-010 1.09575e-010
442
root  -32.5692 41.027 -57.0295 3.61497 46.1565 10.9478
RightUpLeg  -6.39926 -1.48855 2.59907
RightLeg  25.4958 -9.73362 -5.24908
RightFoot  -1.6671 -0.061397 0.591126
RightToes  -2.9104e-010 0 -3.6325e-017
Spine  18.9577 -2.18687 -6.41907
Spine1  -3.24353 -7.00194 7.82508
HEad  -18.5472 -27.8903 9.54416
LeftShoulder1  3.42273 -5.46151 -32.1778
LeftArm  94.9898 -30.3813 -81.7713
LeftForeArm  -16.2532 -20.6925 -8.7541
LeftHand  0.00705049 3.2956 -1.27908
RightShoulder  11.461 18.4372 45.6112
RightArm  42.8074 6.16061 26.4409
RightForeArm  18.9051 24.8539 4.32379
RightHand  0.918253 5.63954 9.30241
LeftUpLeg  -91.5306 23.5838 -72.4966
LeftLeg  125.461 -7.74789 9.52824
LeftFoot  9.30719 1.5825 -8.98653
LeftToes  5.45371e-012 -1.3743e-010 1.09575e-010
